<svg width="512" height="512" viewBox="0 0 512 512" fill="none" xmlns="http://www.w3.org/2000/svg">
<circle cx="256" cy="168" r="87.5" fill="#2AABE2" stroke="#252525" stroke-width="25"/>
<mask id="path-2-inside-1" fill="white">
<path fill-rule="evenodd" clip-rule="evenodd" d="M89.0164 450.048C87.0363 439.669 86 428.956 86 418C86 324.112 162.112 248 256 248C349.888 248 426 324.112 426 418C426 428.956 424.964 439.669 422.984 450.048C378.156 488.658 319.804 512 256 512C192.196 512 133.844 488.658 89.0164 450.048Z"/>
</mask>
<path fill-rule="evenodd" clip-rule="evenodd" d="M89.0164 450.048C87.0363 439.669 86 428.956 86 418C86 324.112 162.112 248 256 248C349.888 248 426 324.112 426 418C426 428.956 424.964 439.669 422.984 450.048C378.156 488.658 319.804 512 256 512C192.196 512 133.844 488.658 89.0164 450.048Z" fill="#2AABE2"/>
<path d="M89.0164 450.048L64.4592 454.733L66.0935 463.299L72.7011 468.991L89.0164 450.048ZM422.984 450.048L439.299 468.991L445.907 463.299L447.541 454.733L422.984 450.048ZM113.573 445.363C111.887 436.521 111 427.376 111 418H61C61 430.536 62.1861 442.818 64.4592 454.733L113.573 445.363ZM111 418C111 337.919 175.919 273 256 273V223C148.304 223 61 310.304 61 418H111ZM256 273C336.081 273 401 337.919 401 418H451C451 310.304 363.696 223 256 223V273ZM401 418C401 427.376 400.113 436.521 398.427 445.363L447.541 454.733C449.814 442.818 451 430.536 451 418H401ZM406.668 431.106C366.206 465.956 313.592 487 256 487V537C326.016 537 390.107 511.36 439.299 468.991L406.668 431.106ZM256 487C198.408 487 145.794 465.956 105.332 431.106L72.7011 468.991C121.893 511.36 185.984 537 256 537V487Z" fill="#252525" mask="url(#path-2-inside-1)"/>
<circle cx="256" cy="256" r="243.5" stroke="#252525" stroke-width="25"/>
</svg>
